<?xml version="1.0" encoding="UTF-8" standalone="no"?>
<!-- Created with Inkscape (http://www.inkscape.org/) -->

<svg
   width="655.6861"
   height="634.37762"
   viewBox="0 0 173.48361 167.84575"
   version="1.1"
   id="svg5"
   inkscape:version="1.2.2 (1:1.2.2+202212051551+b0a8486541)"
   sodipodi:docname="clipit.svg"
   xmlns:inkscape="http://www.inkscape.org/namespaces/inkscape"
   xmlns:sodipodi="http://sodipodi.sourceforge.net/DTD/sodipodi-0.dtd"
   xmlns="http://www.w3.org/2000/svg"
   xmlns:svg="http://www.w3.org/2000/svg">
  <sodipodi:namedview
     id="namedview7"
     pagecolor="#ffffff"
     bordercolor="#000000"
     borderopacity="0.25"
     inkscape:showpageshadow="2"
     inkscape:pageopacity="0.0"
     inkscape:pagecheckerboard="0"
     inkscape:deskcolor="#d1d1d1"
     inkscape:document-units="px"
     showgrid="false"
     inkscape:zoom="0.49512355"
     inkscape:cx="75.738672"
     inkscape:cy="305.98423"
     inkscape:window-width="1920"
     inkscape:window-height="952"
     inkscape:window-x="0"
     inkscape:window-y="27"
     inkscape:window-maximized="1"
     inkscape:current-layer="layer1" />
  <defs
     id="defs2" />
  <g
     inkscape:label="Layer 1"
     inkscape:groupmode="layer"
     id="layer1"
     transform="translate(-4.471738,-23.302408)">
    <g
       id="g993">
      <path
         style="fill:#15d1ff;fill-opacity:1;stroke-width:5.29167"
         d="M 76.186457,94.665779 C 100.27272,67.055278 135.39092,62.53007 142.85098,61.881434 l 6.85624,23.79383 c 0,0 -39.67971,0.875913 -52.742663,23.243606 z"
         id="path1838"
         sodipodi:nodetypes="ccccc" />
      <path
         style="fill:#6233ff;fill-opacity:1;stroke-width:5.29167"
         d="m 64.755095,97.850993 c 0,0 16.183785,46.679237 56.842625,50.648997 5.64712,-8.25041 7.68757,-16.79952 5.73122,-25.67966 z"
         id="path233"
         sodipodi:nodetypes="cccc" />
      <path
         id="path445"
         style="fill:#6200ff;fill-opacity:1;stroke-width:5.29167"
         d="m 108.51741,141.06632 c -2.05559,-0.003 -4.21432,0.49632 -6.49315,1.57768 -6.288504,28.03083 10.89619,52.73228 41.64966,47.89475 12.07309,-1.93991 0.40462,-13.81362 0.40462,-13.81362 l -22.4808,-28.22515 c -3.92365,-4.5981 -8.21185,-7.42599 -13.08033,-7.43366 z m 1.00665,5.57072 c 2.53232,-0.0858 5.64875,1.86294 5.64875,1.86294 l 25.70179,31.79444 c 2.72831,4.30394 0.87624,4.86487 -0.2775,5.99602 -9.59852,2.14936 -16.72219,-0.56213 -22.97947,-4.97593 -9.20872,-9.26916 -11.38938,-19.63941 -11.28562,-30.36765 0,-3.23982 1.45941,-4.2511 3.19205,-4.30982 z" />
      <path
         id="path1553"
         style="fill:#6200ff;fill-opacity:1;stroke-width:5.29167"
         d="m 129.06912,122.7894 c -0.57855,0.005 -1.15827,0.0151 -1.73994,0.031 1.95635,8.88012 -0.0843,17.42918 -5.73144,25.67957 l 33.29099,20.51554 c 10.26849,8.25193 13.71647,6.23111 19.31872,-4.00027 13.90408,-25.73504 -13.04928,-42.49113 -45.13833,-42.22585 z m 9.07025,5.76864 c 8.15516,-0.0459 16.54913,2.12056 25.34987,8.05688 8.53454,5.37083 14.88571,30.22671 -1.01647,29.49225 -11.75786,-7.35182 -23.53169,-15.02628 -35.14359,-19.47323 2.52051,-3.63709 4.99121,-8.77466 7.32927,-17.925 1.15577,-0.0923 2.3159,-0.14434 3.48092,-0.1509 z" />
      <path
         style="fill:#c1b8e0;fill-opacity:1;stroke-width:5.29167"
         d="m 64.755095,97.850993 34.06376,21.318227 28.510195,3.65116 z"
         id="path1612" />
      <circle
         style="fill:#c1b8e0;fill-opacity:1;stroke-width:4.01722"
         id="path499"
         cx="112.94684"
         cy="132.53409"
         r="6.614583" />
      <path
         style="fill:#15d1ff;fill-opacity:1;stroke-width:5.29167"
         d="M 73.70835,97.850993 C 30.315722,127.98185 27.65676,149.70545 27.65676,149.70545 l 25.441444,18.54679 c 9.038742,-25.56144 23.071845,-44.39122 42.943813,-57.91658 z"
         id="path1836"
         sodipodi:nodetypes="ccccc" />
      <path
         id="path1918"
         style="fill:#006bdf;fill-opacity:1;stroke-width:5.29167"
         d="M 98.201131,80.732953 C 92.095272,84.59382 86.216517,89.051326 80.525724,94.002427 l 16.168522,9.610263 C 100.225,99.149081 104.64232,95.621357 109.74151,92.813869 Z" />
      <path
         id="path1934"
         style="fill:#006bdf;fill-opacity:1;stroke-width:5.29167"
         d="m 121.89942,69.384292 c -7.07304,2.332758 -13.83815,5.474484 -20.34346,9.299173 l 10.42986,12.962 c 4.83882,-2.381872 10.22271,-4.188122 16.00005,-5.578988 z" />
      <path
         id="path1928"
         style="fill:#006bdf;fill-opacity:1;stroke-width:5.29167"
         d="m 124.62949,68.52698 5.194,17.111616 c 4.9095,-1.093979 10.08054,-1.911461 15.42799,-2.542997 l -5.10614,-17.775142 c -5.33733,0.634397 -10.50347,1.718332 -15.51585,3.206523 z" />
      <path
         id="path2009"
         style="fill:#006bdf;fill-opacity:1;stroke-width:5.29167"
         d="m 42.835656,128.74241 c -5.519907,6.82132 -9.634336,13.63689 -11.67474,19.75745 l 19.388997,14.16864 c 2.575214,-6.66873 6.300765,-14.12405 11.170378,-21.60333 z" />
      <path
         id="path2025"
         style="fill:#006bdf;fill-opacity:1;stroke-width:5.29167"
         d="m 58.917361,112.30156 c -5.120118,4.41411 -9.823602,9.09746 -13.893208,13.82034 l 18.880501,11.69902 c 3.366515,-4.83587 7.210151,-9.63561 11.536245,-14.1919 z" />
      <path
         id="path2019"
         style="fill:#006bdf;fill-opacity:1;stroke-width:5.29167"
         d="m 73.422419,101.30946 c -4.19333,2.76751 -8.26479,5.7955 -12.131559,8.98706 l 16.581932,10.84739 c 3.89434,-3.85772 8.146094,-7.50564 12.757876,-10.80813 z" />
      <path
         id="path2294"
         style="fill:#6233ff;fill-opacity:1;stroke-width:5.29167"
         d="m 93.4199,79.629166 4.28346,31.369664 29.62558,11.8215 c 0,-21.00133 -33.90904,-43.191164 -33.90904,-43.191164 z" />
      <path
         id="path2299"
         style="fill:#c1b8e0;fill-opacity:1;stroke-width:5.29167"
         d="m 93.4199,79.629687 4.28346,31.369143 4.91598,1.96164 z" />
      <path
         style="fill:#fff900;fill-opacity:1;stroke-width:5.29167"
         d="m 70.571459,111.67557 -30.93962,30.66752 25.73477,-33.19654 -46.61516,16.25993 47.7804,-23.01351 L 4.471738,97.340143 67.863539,97.259643 6.410205,63.200091 70.363909,93.012047 10.127902,30.564178 73.626309,90.376549 40.047729,25.18854 78.035299,87.600716 74.075679,23.302408 84.538529,87.673655 103.58556,40.5171 88.754589,89.062855 127.80999,55.617932 89.914649,93.9851 102.9547,79.026673 86.970479,91.86229 l 6.58518,-21.979365 -9.87493,22.074987 -5.3071,-31.552081 1.72329,33.147024 -14.28678,-23.492659 11.94084,24.711397 -20.70569,-17.982923 19.06255,20.316703 -24.04782,-10.858225 23.18018,13.016001 -28.38014,-0.340364 26.56236,2.386675 -31.64832,14.44709 29.15862,-10.80593 -18.1484,21.8667 z"
         id="path3260" />
    </g>
  </g>
</svg>
